<?xml version="1.0" encoding="iso-8859-1"?>
<!-- Generator: Adobe Illustrator 19.0.0, SVG Export Plug-In . SVG Version: 6.00 Build 0)  -->
<svg version="1.1" id="Layer_1" xmlns="http://www.w3.org/2000/svg" xmlns:xlink="http://www.w3.org/1999/xlink" x="0px" y="0px"
	 viewBox="0 0 392.152 392.152" style="enable-background:new 0 0 392.152 392.152;" xml:space="preserve">
<g>
	<path style="fill:#77B8E8;" d="M298.526,153.455c-13.935,0-25.231-11.296-25.231-25.231c0-42.878-34.884-77.761-77.762-77.761
		c-42.877,0-77.76,34.883-77.76,77.761c0,13.936-11.297,25.231-25.231,25.231c-13.936,0-25.231-11.296-25.231-25.231
		C67.311,57.521,124.831,0,195.533,0c70.704,0,128.225,57.521,128.225,128.224C323.758,142.159,312.462,153.455,298.526,153.455z"/>
	<path style="fill:#009BDE;" d="M293.493,45.588c-18.048-12.438-39.901-19.731-63.431-19.731c-41.618,0-78.01,22.807-97.336,56.577
		c14.156-19.365,37.036-31.971,62.807-31.971c42.878,0,77.762,34.883,77.762,77.761c0,13.936,11.297,25.231,25.231,25.231
		c13.936,0,25.231-11.296,25.231-25.231C323.758,96.765,312.362,67.922,293.493,45.588z"/>
	<g>
		<g>
			<path style="fill:#333E48;" d="M282.882,128.224c-37.75,0-68.354,30.603-68.354,68.355v54.957
				c0,37.752,30.604,68.355,68.354,68.355h25.582c37.752,0,68.355-30.604,68.355-68.355v-54.957
				c0-37.752-30.604-68.355-68.355-68.355H282.882z"/>
		</g>
		<path style="fill:#3E4A57;" d="M351.239,251.535c0,37.752-30.605,68.355-68.357,68.355c-37.75,0-68.354-30.604-68.354-68.355
			v-54.957c0-37.752,30.604-68.355,68.354-68.355c37.752,0,68.357,30.603,68.357,68.355V251.535z"/>
		<path style="fill:#333E48;" d="M328.809,243.823c0,27.157-22.015,49.172-49.173,49.172c-27.157,0-49.171-22.015-49.171-49.172
			V204.29c0-27.156,22.014-49.17,49.171-49.17c27.158,0,49.173,22.014,49.173,49.17V243.823z"/>
	</g>
	<g>
		<g>
			<path style="fill:#333E48;" d="M83.687,128.224c-37.75,0-68.354,30.603-68.354,68.355v54.957
				c0,37.752,30.604,68.355,68.354,68.355h25.583c37.751,0,68.355-30.604,68.355-68.355v-54.957
				c0-37.752-30.605-68.355-68.355-68.355H83.687z"/>
		</g>
		<path style="fill:#3E4A57;" d="M152.044,251.535c0,37.752-30.606,68.355-68.357,68.355c-37.75,0-68.354-30.604-68.354-68.355
			v-54.957c0-37.752,30.604-68.355,68.354-68.355c37.752,0,68.357,30.603,68.357,68.355V251.535z"/>
		<path style="fill:#009BDE;" d="M129.614,243.823c0,27.157-22.016,49.172-49.173,49.172c-27.158,0-49.171-22.015-49.171-49.172
			V204.29c0-27.156,22.013-49.17,49.171-49.17c27.157,0,49.173,22.014,49.173,49.17V243.823z"/>
		<circle style="fill:#FFFFFF;" cx="80.441" cy="224.058" r="29.713"/>
	</g>
	<g>
		<path style="fill:#77B8E8;" d="M137.988,392.152c-34.173,0-61.974-27.801-61.974-61.973v-37.185c0-2.445,1.981-4.427,4.427-4.427
			c2.444,0,4.426,1.981,4.426,4.427v37.185c0,29.29,23.829,53.12,53.121,53.12c29.289,0,53.12-23.83,53.12-53.12
			c0-2.445,1.982-4.427,4.427-4.427c2.444,0,4.427,1.981,4.427,4.427C199.962,364.352,172.16,392.152,137.988,392.152z"/>
		<rect x="187.409" y="292.11" style="fill:#333E48;" width="16.251" height="43.608"/>
		<path style="fill:#FFA400;" d="M195.535,271.458c-3.004,0-5.439,2.435-5.439,5.437v15.216h10.874v-15.216
			C200.971,273.893,198.539,271.458,195.535,271.458z"/>
		<rect x="187.409" y="297.569" style="fill:#3E4A57;" width="16.251" height="4.684"/>
		<rect x="187.409" y="306.57" style="fill:#3E4A57;" width="16.251" height="4.684"/>
	</g>
</g>
<g>
</g>
<g>
</g>
<g>
</g>
<g>
</g>
<g>
</g>
<g>
</g>
<g>
</g>
<g>
</g>
<g>
</g>
<g>
</g>
<g>
</g>
<g>
</g>
<g>
</g>
<g>
</g>
<g>
</g>
</svg>
