<?xml version="1.0" encoding="iso-8859-1"?>
<!-- Generator: Adobe Illustrator 19.0.0, SVG Export Plug-In . SVG Version: 6.00 Build 0)  -->
<svg version="1.1" id="Layer_1" xmlns="http://www.w3.org/2000/svg" xmlns:xlink="http://www.w3.org/1999/xlink" x="0px" y="0px"
	 viewBox="0 0 489.946 489.946" style="enable-background:new 0 0 489.946 489.946;" xml:space="preserve">
<g>
	<path style="fill:#71D1D1;" d="M359.804,290.905c0,4.227-3.427,7.655-7.655,7.655v22.967h15.311c4.228,0,7.655,3.428,7.655,7.655
		c0,4.228-3.427,7.655-7.655,7.655h-15.311v22.966h15.311c4.228,0,7.655,3.428,7.655,7.655s-3.427,7.655-7.655,7.655h-15.311v22.966
		h15.311c4.228,0,7.655,3.428,7.655,7.655c0,4.228-3.427,7.655-7.655,7.655h-15.311v22.967c4.228,0,7.655,3.428,7.655,7.655
		s-3.427,7.655-7.655,7.655v22.966h122.487V260.284H352.148v22.966C356.376,283.25,359.804,286.678,359.804,290.905z
		 M398.081,451.669H382.77c-4.228,0-7.655-3.428-7.655-7.655c0-4.228,3.427-7.655,7.655-7.655h15.311
		c4.228,0,7.655,3.428,7.655,7.655S402.309,451.669,398.081,451.669z M444.013,451.669h-15.311c-4.228,0-7.655-3.428-7.655-7.655
		c0-4.228,3.427-7.655,7.655-7.655h15.311c4.228,0,7.655,3.428,7.655,7.655C451.669,448.241,448.241,451.669,444.013,451.669z
		 M451.669,405.736c0,4.228-3.427,7.655-7.655,7.655h-45.932c-4.228,0-7.655-3.428-7.655-7.655v-76.553
		c0-4.228,3.427-7.655,7.655-7.655h45.932c4.228,0,7.655,3.428,7.655,7.655V405.736z M428.703,283.25h15.311
		c4.228,0,7.655,3.428,7.655,7.655s-3.427,7.655-7.655,7.655h-15.311c-4.228,0-7.655-3.428-7.655-7.655
		C421.047,286.678,424.475,283.25,428.703,283.25z M382.77,283.25h15.311c4.228,0,7.655,3.428,7.655,7.655s-3.427,7.655-7.655,7.655
		H382.77c-4.228,0-7.655-3.428-7.655-7.655S378.542,283.25,382.77,283.25z"/>
	<path style="fill:#A0E0E0;" d="M183.73,321.527c4.228,0,7.655,3.428,7.655,7.655c0,4.228-3.427,7.655-7.655,7.655h-3.461v22.966
		h3.461c4.228,0,7.655,3.428,7.655,7.655s-3.427,7.655-7.655,7.655h-3.461v22.966h3.461c4.228,0,7.655,3.428,7.655,7.655
		c0,4.228-3.427,7.655-7.655,7.655h-3.461v22.967h110.637c4.228,0,7.655,3.428,7.655,7.655s-3.427,7.655-7.655,7.655H180.27v22.966
		h171.88v-22.966h-30.621c-4.228,0-7.655-3.428-7.655-7.655c0-4.228,3.427-7.655,7.655-7.655h30.621v-22.967
		c-4.228,0-7.655-3.428-7.655-7.655c0-4.228,3.427-7.655,7.655-7.655v-22.966c-4.228,0-7.655-3.428-7.655-7.655
		c0-4.228,3.427-7.655,7.655-7.655v-22.966c-4.228,0-7.655-3.428-7.655-7.655c0-4.228,3.427-7.655,7.655-7.655V298.56h-15.311
		c-4.228,0-7.655-3.428-7.655-7.655c0-4.228,3.427-7.655,7.655-7.655h15.311v-22.966h-171.88v61.244L183.73,321.527L183.73,321.527z
		 M229.663,413.391h-15.311c-4.228,0-7.655-3.428-7.655-7.655c0-4.228,3.427-7.655,7.655-7.655h15.311
		c4.228,0,7.655,3.428,7.655,7.655C237.318,409.964,233.891,413.391,229.663,413.391z M229.663,375.115h-15.311
		c-4.228,0-7.655-3.428-7.655-7.655c0-4.228,3.427-7.655,7.655-7.655h15.311c4.228,0,7.655,3.428,7.655,7.655
		C237.318,371.687,233.891,375.115,229.663,375.115z M275.595,413.391h-15.311c-4.228,0-7.655-3.428-7.655-7.655
		c0-4.228,3.427-7.655,7.655-7.655h15.311c4.228,0,7.655,3.428,7.655,7.655C283.25,409.964,279.823,413.391,275.595,413.391z
		 M275.595,375.115h-15.311c-4.228,0-7.655-3.428-7.655-7.655c0-4.228,3.427-7.655,7.655-7.655h15.311
		c4.228,0,7.655,3.428,7.655,7.655C283.25,371.687,279.823,375.115,275.595,375.115z M321.527,413.391h-15.311
		c-4.228,0-7.655-3.428-7.655-7.655c0-4.228,3.427-7.655,7.655-7.655h15.311c4.228,0,7.655,3.428,7.655,7.655
		C329.182,409.964,325.755,413.391,321.527,413.391z M321.527,375.115h-15.311c-4.228,0-7.655-3.428-7.655-7.655
		c0-4.228,3.427-7.655,7.655-7.655h15.311c4.228,0,7.655,3.428,7.655,7.655C329.182,371.687,325.755,375.115,321.527,375.115z
		 M329.182,329.183c0,4.228-3.427,7.655-7.655,7.655h-15.311c-4.228,0-7.655-3.428-7.655-7.655c0-4.228,3.427-7.655,7.655-7.655
		h15.311C325.755,321.527,329.182,324.955,329.182,329.183z M290.905,283.25h15.311c4.228,0,7.655,3.428,7.655,7.655
		s-3.427,7.655-7.655,7.655h-15.311c-4.228,0-7.655-3.428-7.655-7.655S286.677,283.25,290.905,283.25z M283.25,329.183
		c0,4.228-3.427,7.655-7.655,7.655h-15.311c-4.228,0-7.655-3.428-7.655-7.655c0-4.228,3.427-7.655,7.655-7.655h15.311
		C279.823,321.527,283.25,324.955,283.25,329.183z M244.974,283.25h15.311c4.228,0,7.655,3.428,7.655,7.655
		s-3.427,7.655-7.655,7.655h-15.311c-4.228,0-7.655-3.428-7.655-7.655S240.745,283.25,244.974,283.25z M237.318,329.183
		c0,4.228-3.427,7.655-7.655,7.655h-15.311c-4.228,0-7.655-3.428-7.655-7.655c0-4.228,3.427-7.655,7.655-7.655h15.311
		C233.891,321.527,237.318,324.955,237.318,329.183z M199.04,283.25h15.311c4.228,0,7.655,3.428,7.655,7.655
		s-3.427,7.655-7.655,7.655H199.04c-4.228,0-7.655-3.428-7.655-7.655S194.813,283.25,199.04,283.25z"/>
	<rect x="425.421" y="336.838" style="fill:#FBB03B;" width="10.938" height="61.243"/>
	<rect x="405.736" y="336.838" style="fill:#FDD089;" width="19.684" height="61.243"/>
	<path style="fill:#D0F0F0;" d="M180.27,451.669h-42.471c-4.228,0-7.655-3.428-7.655-7.655c0-4.228,3.427-7.655,7.655-7.655h42.471
		v-22.967h-11.85c-4.228,0-7.655-3.428-7.655-7.655c0-4.228,3.427-7.655,7.655-7.655h11.85v-22.966h-11.85
		c-4.228,0-7.655-3.428-7.655-7.655c0-4.228,3.427-7.655,7.655-7.655h11.85V336.84h-11.85c-4.228,0-7.655-3.428-7.655-7.655
		c0-4.228,3.427-7.655,7.655-7.655h11.85v-61.244H15.312v214.351H180.27V451.669z M153.109,283.25h15.311
		c4.228,0,7.655,3.428,7.655,7.655s-3.427,7.655-7.655,7.655h-15.311c-4.228,0-7.655-3.428-7.655-7.655
		S148.881,283.25,153.109,283.25z M145.454,329.183c0,4.228-3.427,7.655-7.655,7.655h-15.311c-4.228,0-7.655-3.428-7.655-7.655
		c0-4.228,3.427-7.655,7.655-7.655h15.311C142.025,321.527,145.454,324.955,145.454,329.183z M107.177,283.25h15.311
		c4.228,0,7.655,3.428,7.655,7.655s-3.427,7.655-7.655,7.655h-15.311c-4.228,0-7.655-3.428-7.655-7.655
		C99.521,286.678,102.949,283.25,107.177,283.25z M45.934,283.25h30.621c4.228,0,7.655,3.428,7.655,7.655s-3.427,7.655-7.655,7.655
		H45.934c-4.228,0-7.655-3.428-7.655-7.655C38.278,286.678,41.706,283.25,45.934,283.25z M45.934,321.527h45.932
		c4.228,0,7.655,3.428,7.655,7.655c0,4.228-3.427,7.655-7.655,7.655H45.934c-4.228,0-7.655-3.428-7.655-7.655
		C38.278,324.955,41.706,321.527,45.934,321.527z M45.934,359.804h91.865c4.228,0,7.655,3.428,7.655,7.655s-3.427,7.655-7.655,7.655
		H45.934c-4.228,0-7.655-3.428-7.655-7.655C38.278,363.232,41.706,359.804,45.934,359.804z M45.934,398.081h45.932
		c4.228,0,7.655,3.428,7.655,7.655c0,4.228-3.427,7.655-7.655,7.655H45.934c-4.228,0-7.655-3.428-7.655-7.655
		C38.278,401.508,41.706,398.081,45.934,398.081z M61.244,451.669h-15.31c-4.228,0-7.655-3.428-7.655-7.655
		c0-4.228,3.427-7.655,7.655-7.655h15.311c4.228,0,7.655,3.428,7.655,7.655C68.899,448.241,65.472,451.669,61.244,451.669z
		 M107.177,451.669H91.866c-4.228,0-7.655-3.428-7.655-7.655c0-4.228,3.427-7.655,7.655-7.655h15.311
		c4.228,0,7.655,3.428,7.655,7.655C114.832,448.241,111.405,451.669,107.177,451.669z M114.832,405.736
		c0-4.228,3.427-7.655,7.655-7.655h15.311c4.228,0,7.655,3.428,7.655,7.655c0,4.228-3.427,7.655-7.655,7.655h-15.311
		C118.259,413.391,114.832,409.964,114.832,405.736z"/>
	<path d="M482.29,244.973H53.589c0-12.664,10.302-22.967,22.966-22.967h344.493c21.106,0,38.277-17.17,38.277-38.277
		s-17.171-38.277-38.277-38.277H76.555c-12.663,0-22.966-10.303-22.966-22.967s10.302-22.966,22.966-22.966h344.493
		c21.106,0,38.277-17.171,38.277-38.277s-17.171-38.278-38.277-38.278H76.658C63.994,22.966,53.691,12.663,53.691,0H38.38
		c0,21.044,17.07,38.176,38.091,38.277c0.028,0,0.055,0,0.083,0h344.493c12.663,0,22.966,10.303,22.966,22.967
		c0,12.663-10.302,22.966-22.966,22.966H76.555c-21.106,0-38.277,17.17-38.277,38.277s17.171,38.278,38.277,38.278h344.493
		c12.663,0,22.966,10.303,22.966,22.966c0,12.663-10.302,22.966-22.966,22.966H76.555c-21.106,0-38.277,17.171-38.277,38.278H7.656
		c-4.228,0-7.655,3.428-7.655,7.655v229.66c0,4.228,3.427,7.656,7.655,7.656H482.29c4.228,0,7.655-3.428,7.655-7.656V252.629l0,0
		C489.947,248.401,486.518,244.973,482.29,244.973z M15.312,260.284H180.27h171.88h122.487v214.351H352.148h-171.88H15.312V260.284z
		"/>
	<path d="M61.244,436.358h-15.31c-4.228,0-7.655,3.428-7.655,7.655s3.427,7.655,7.655,7.655h15.311c4.228,0,7.655-3.428,7.655-7.655
		C68.899,439.786,65.472,436.358,61.244,436.358z"/>
	<path d="M45.934,298.56h30.621c4.228,0,7.655-3.428,7.655-7.655c0-4.228-3.427-7.655-7.655-7.655H45.934
		c-4.228,0-7.655,3.428-7.655,7.655C38.278,295.133,41.706,298.56,45.934,298.56z"/>
	<path d="M107.177,298.56h15.311c4.228,0,7.655-3.428,7.655-7.655c0-4.228-3.427-7.655-7.655-7.655h-15.311
		c-4.228,0-7.655,3.428-7.655,7.655C99.521,295.133,102.949,298.56,107.177,298.56z"/>
	<path d="M153.109,298.56h15.311c4.228,0,7.655-3.428,7.655-7.655c0-4.228-3.427-7.655-7.655-7.655h-15.311
		c-4.228,0-7.655,3.428-7.655,7.655C145.454,295.133,148.881,298.56,153.109,298.56z"/>
	<path d="M199.04,298.56h15.311c4.228,0,7.655-3.428,7.655-7.655c0-4.228-3.427-7.655-7.655-7.655H199.04
		c-4.228,0-7.655,3.428-7.655,7.655C191.385,295.133,194.813,298.56,199.04,298.56z"/>
	<path d="M244.974,298.56h15.311c4.228,0,7.655-3.428,7.655-7.655c0-4.228-3.427-7.655-7.655-7.655h-15.311
		c-4.228,0-7.655,3.428-7.655,7.655C237.318,295.133,240.745,298.56,244.974,298.56z"/>
	<path d="M290.905,298.56h15.311c4.228,0,7.655-3.428,7.655-7.655c0-4.228-3.427-7.655-7.655-7.655h-15.311
		c-4.228,0-7.655,3.428-7.655,7.655C283.25,295.133,286.677,298.56,290.905,298.56z"/>
	<path d="M359.804,290.905c0-4.228-3.427-7.655-7.655-7.655h-15.311c-4.228,0-7.655,3.428-7.655,7.655s3.427,7.655,7.655,7.655
		h15.311C356.376,298.56,359.804,295.133,359.804,290.905z"/>
	<path d="M382.77,298.56h15.311c4.228,0,7.655-3.428,7.655-7.655c0-4.228-3.427-7.655-7.655-7.655H382.77
		c-4.228,0-7.655,3.428-7.655,7.655C375.115,295.133,378.542,298.56,382.77,298.56z"/>
	<path d="M428.703,298.56h15.311c4.228,0,7.655-3.428,7.655-7.655c0-4.228-3.427-7.655-7.655-7.655h-15.311
		c-4.228,0-7.655,3.428-7.655,7.655C421.047,295.133,424.475,298.56,428.703,298.56z"/>
	<path d="M107.177,436.358H91.866c-4.228,0-7.655,3.428-7.655,7.655s3.427,7.655,7.655,7.655h15.311
		c4.228,0,7.655-3.428,7.655-7.655C114.832,439.786,111.405,436.358,107.177,436.358z"/>
	<path d="M359.804,444.014c0-4.228-3.427-7.655-7.655-7.655h-30.621c-4.228,0-7.655,3.428-7.655,7.655s3.427,7.655,7.655,7.655
		h30.621C356.376,451.669,359.804,448.241,359.804,444.014z"/>
	<path d="M444.013,436.358h-15.311c-4.228,0-7.655,3.428-7.655,7.655s3.427,7.655,7.655,7.655h15.311
		c4.228,0,7.655-3.428,7.655-7.655C451.669,439.786,448.241,436.358,444.013,436.358z"/>
	<path style="fill:#FFFFFF;" d="M298.561,444.014c0-4.228-3.427-7.655-7.655-7.655H180.27h-42.471c-4.228,0-7.655,3.428-7.655,7.655
		s3.427,7.655,7.655,7.655h42.471h110.637C295.133,451.669,298.561,448.241,298.561,444.014z"/>
	<path d="M398.081,436.358H382.77c-4.228,0-7.655,3.428-7.655,7.655s3.427,7.655,7.655,7.655h15.311
		c4.228,0,7.655-3.428,7.655-7.655S402.309,436.358,398.081,436.358z"/>
	<path d="M45.934,413.391h45.932c4.228,0,7.655-3.428,7.655-7.655c0-4.228-3.427-7.655-7.655-7.655H45.934
		c-4.228,0-7.655,3.428-7.655,7.655C38.278,409.964,41.706,413.391,45.934,413.391z"/>
	<path d="M45.934,336.838h45.932c4.228,0,7.655-3.428,7.655-7.655c0-4.228-3.427-7.655-7.655-7.655H45.934
		c-4.228,0-7.655,3.428-7.655,7.655C38.278,333.41,41.706,336.838,45.934,336.838z"/>
	<path d="M45.934,375.115h91.865c4.228,0,7.655-3.428,7.655-7.655c0-4.228-3.427-7.655-7.655-7.655H45.934
		c-4.228,0-7.655,3.428-7.655,7.655C38.278,371.687,41.706,375.115,45.934,375.115z"/>
	<path d="M444.013,321.527h-45.932c-4.228,0-7.655,3.428-7.655,7.655v76.553c0,4.228,3.427,7.655,7.655,7.655h45.932
		c4.228,0,7.655-3.428,7.655-7.655v-76.553C451.669,324.955,448.241,321.527,444.013,321.527z M436.358,398.081h-10.938h-19.684
		v-61.243h19.684h10.938V398.081z"/>
	<path d="M145.454,405.736c0-4.228-3.427-7.655-7.655-7.655h-15.311c-4.228,0-7.655,3.428-7.655,7.655
		c0,4.228,3.427,7.655,7.655,7.655h15.311C142.025,413.391,145.454,409.964,145.454,405.736z"/>
	<path d="M191.385,405.736c0-4.228-3.427-7.655-7.655-7.655h-3.461h-11.85c-4.228,0-7.655,3.428-7.655,7.655
		c0,4.228,3.427,7.655,7.655,7.655h11.85h3.461C187.958,413.391,191.385,409.964,191.385,405.736z"/>
	<path d="M229.663,398.081h-15.311c-4.228,0-7.655,3.428-7.655,7.655c0,4.228,3.427,7.655,7.655,7.655h15.311
		c4.228,0,7.655-3.428,7.655-7.655C237.318,401.508,233.891,398.081,229.663,398.081z"/>
	<path d="M275.595,398.081h-15.311c-4.228,0-7.655,3.428-7.655,7.655c0,4.228,3.427,7.655,7.655,7.655h15.311
		c4.228,0,7.655-3.428,7.655-7.655C283.25,401.508,279.823,398.081,275.595,398.081z"/>
	<path d="M321.527,398.081h-15.311c-4.228,0-7.655,3.428-7.655,7.655c0,4.228,3.427,7.655,7.655,7.655h15.311
		c4.228,0,7.655-3.428,7.655-7.655C329.182,401.508,325.755,398.081,321.527,398.081z"/>
	<path d="M375.115,405.736c0-4.228-3.427-7.655-7.655-7.655h-15.311c-4.228,0-7.655,3.428-7.655,7.655
		c0,4.228,3.427,7.655,7.655,7.655h15.311C371.688,413.391,375.115,409.964,375.115,405.736z"/>
	<path d="M114.832,329.183c0,4.228,3.427,7.655,7.655,7.655h15.311c4.228,0,7.655-3.428,7.655-7.655
		c0-4.228-3.427-7.655-7.655-7.655h-15.311C118.259,321.527,114.832,324.955,114.832,329.183z"/>
	<path d="M191.385,367.459c0-4.228-3.427-7.655-7.655-7.655h-3.461h-11.85c-4.228,0-7.655,3.428-7.655,7.655
		s3.427,7.655,7.655,7.655h11.85h3.461C187.958,375.115,191.385,371.687,191.385,367.459z"/>
	<path d="M229.663,359.804h-15.311c-4.228,0-7.655,3.428-7.655,7.655s3.427,7.655,7.655,7.655h15.311
		c4.228,0,7.655-3.428,7.655-7.655C237.318,363.232,233.891,359.804,229.663,359.804z"/>
	<path d="M275.595,359.804h-15.311c-4.228,0-7.655,3.428-7.655,7.655s3.427,7.655,7.655,7.655h15.311
		c4.228,0,7.655-3.428,7.655-7.655S279.823,359.804,275.595,359.804z"/>
	<path d="M321.527,359.804h-15.311c-4.228,0-7.655,3.428-7.655,7.655s3.427,7.655,7.655,7.655h15.311
		c4.228,0,7.655-3.428,7.655-7.655S325.755,359.804,321.527,359.804z"/>
	<path d="M375.115,367.459c0-4.228-3.427-7.655-7.655-7.655h-15.311c-4.228,0-7.655,3.428-7.655,7.655s3.427,7.655,7.655,7.655
		h15.311C371.688,375.115,375.115,371.687,375.115,367.459z"/>
	<path d="M191.385,329.183c0-4.228-3.427-7.655-7.655-7.655h-3.461h-11.85c-4.228,0-7.655,3.428-7.655,7.655
		c0,4.228,3.427,7.655,7.655,7.655h11.85h3.461C187.958,336.838,191.385,333.41,191.385,329.183z"/>
	<path d="M206.697,329.183c0,4.228,3.427,7.655,7.655,7.655h15.311c4.228,0,7.655-3.428,7.655-7.655
		c0-4.228-3.427-7.655-7.655-7.655h-15.311C210.124,321.527,206.697,324.955,206.697,329.183z"/>
	<path d="M252.629,329.183c0,4.228,3.427,7.655,7.655,7.655h15.311c4.228,0,7.655-3.428,7.655-7.655
		c0-4.228-3.427-7.655-7.655-7.655h-15.311C256.055,321.527,252.629,324.955,252.629,329.183z"/>
	<path d="M298.561,329.183c0,4.228,3.427,7.655,7.655,7.655h15.311c4.228,0,7.655-3.428,7.655-7.655
		c0-4.228-3.427-7.655-7.655-7.655h-15.311C301.988,321.527,298.561,324.955,298.561,329.183z"/>
	<path d="M375.115,329.183c0-4.228-3.427-7.655-7.655-7.655h-15.311c-4.228,0-7.655,3.428-7.655,7.655
		c0,4.228,3.427,7.655,7.655,7.655h15.311C371.688,336.838,375.115,333.41,375.115,329.183z"/>
</g>
<g>
</g>
<g>
</g>
<g>
</g>
<g>
</g>
<g>
</g>
<g>
</g>
<g>
</g>
<g>
</g>
<g>
</g>
<g>
</g>
<g>
</g>
<g>
</g>
<g>
</g>
<g>
</g>
<g>
</g>
</svg>
