<svg xmlns="http://www.w3.org/2000/svg" viewBox="0 0 512 512" xmlns:v="https://vecta.io/nano"><path d="M216.62 387.28L190.36 361H13.13a6.56 6.56 0 0 0-6.56 6.56v13.13a59.08 59.08 0 0 0 59.08 59.08h380.71a59.08 59.08 0 0 0 59.08-59.08v-13.1a6.56 6.56 0 0 0-6.56-6.56H321.64l-26.26 26.26z" fill="#d1e1e8"/><path d="M446.36 446.36H65.64A65.72 65.72 0 0 1 0 380.72v-13.13a13.14 13.14 0 0 1 13.13-13.13h179.95l26.26 26.26h73.33l26.26-26.26h179.94A13.14 13.14 0 0 1 512 367.59v13.13a65.72 65.72 0 0 1-65.64 65.64zM13.13 367.59v13.13a52.57 52.57 0 0 0 52.51 52.51h380.72a52.57 52.57 0 0 0 52.51-52.51v-13.13H324.36l-26.26 26.26h-84.2l-26.26-26.26z" fill="#141f38"/><path d="M190.36,361l26.26,26.26h78.77L321.64,361H479.18V137.85a65.64,65.64,0,0,0-65.64-65.64H98.46a65.64,65.64,0,0,0-65.64,65.64V361Z" fill="#5ecaef"/><path d="M295.38 393.85h-78.76a6.56 6.56 0 0 1-4.64-1.92l-24.33-24.33H32.82a6.56 6.56 0 0 1-6.56-6.6V137.85a72.29 72.29 0 0 1 72.2-72.21h315.08a72.29 72.29 0 0 1 72.21 72.21V361a6.56 6.56 0 0 1-6.56 6.56H324.36L300 391.92a6.56 6.56 0 0 1-4.62 1.93zm-76.05-13.13h73.33L317 356.38a6.56 6.56 0 0 1 4.64-1.92h151V137.85a59.14 59.14 0 0 0-59.08-59.08H98.46a59.14 59.14 0 0 0-59.08 59.08v216.61h151a6.56 6.56 0 0 1 4.64 1.92z" fill="#141f38"/><path d="M387.28 190.36H216.62a26.26 26.26 0 0 1-26.26-26.26h0a26.26 26.26 0 0 1 26.26-26.26h170.66a26.26 26.26 0 0 1 26.26 26.26h0a26.26 26.26 0 0 1-26.26 26.26z" fill="#f9c882"/><path d="M387.28,196.92H216.62a32.82,32.82,0,1,1,0-65.64H387.28a32.82,32.82,0,1,1,0,65.64ZM216.62,144.41a19.69,19.69,0,1,0,0,39.38H387.28a19.69,19.69,0,1,0,0-39.38Z" fill="#141f38"/><path d="M295.38 295.38H124.72a26.26 26.26 0 0 1-26.26-26.26h0a26.26 26.26 0 0 1 26.26-26.26h170.66a26.26 26.26 0 0 1 26.26 26.26h0a26.26 26.26 0 0 1-26.26 26.26z" fill="#3eb38a"/><path d="M295.38,301.95H124.72a32.82,32.82,0,1,1,0-65.64H295.38a32.82,32.82,0,1,1,0,65.64ZM124.72,249.44a19.69,19.69,0,1,0,0,39.38H295.38a19.69,19.69,0,0,0,0-39.38Z" fill="#141f38"/><circle cx="124.72" cy="164.1" r="26.26" fill="#fff"/><path d="M124.72 196.92a32.82 32.82 0 1 1 32.82-32.82 32.86 32.86 0 0 1-32.82 32.82zm0-52.51a19.69 19.69 0 1 0 19.69 19.69 19.71 19.71 0 0 0-19.69-19.69z" fill="#141f38"/><circle cx="387.28" cy="269.13" r="26.26" fill="#ff5f6e"/><path d="M387.28 301.95a32.82 32.82 0 1 1 32.82-32.82 32.86 32.86 0 0 1-32.82 32.82zm0-52.51A19.69 19.69 0 1 0 407 269.13a19.71 19.71 0 0 0-19.72-19.69z" fill="#141f38"/></svg>