<?xml version="1.0" encoding="iso-8859-1"?>
<!-- Generator: Adobe Illustrator 18.1.1, SVG Export Plug-In . SVG Version: 6.00 Build 0)  -->
<svg version="1.1" id="Capa_1" xmlns="http://www.w3.org/2000/svg" xmlns:xlink="http://www.w3.org/1999/xlink" x="0px" y="0px"
	 viewBox="0 0 20 20" style="enable-background:new 0 0 20 20;" xml:space="preserve">
<g>
	<g>
		<g>
			<path style="fill:#030104;" d="M17,16c0.55,0,1,0.45,1,1s-0.45,1-1,1H3c-0.55,0-1-0.45-1-1s0.45-1,1-1H17 M17,14H3
				c-1.654,0-3,1.346-3,3s1.346,3,3,3h14c1.654,0,3-1.346,3-3S18.654,14,17,14z"/>
		</g>
	</g>
	<g>
		<g>
			<path style="fill:#030104;" d="M17,9c0.55,0,1,0.45,1,1s-0.45,1-1,1H3c-0.55,0-1-0.45-1-1s0.45-1,1-1H17 M17,7H3
				c-1.654,0-3,1.346-3,3s1.346,3,3,3h14c1.654,0,3-1.346,3-3S18.654,7,17,7z"/>
		</g>
	</g>
	<g>
		<g>
			<path style="fill:#030104;" d="M17,2c0.55,0,1,0.45,1,1s-0.45,1-1,1H3C2.45,4,2,3.55,2,3s0.45-1,1-1H17 M17,0H3
				C1.346,0,0,1.346,0,3s1.346,3,3,3h14c1.654,0,3-1.346,3-3S18.654,0,17,0z"/>
		</g>
	</g>
</g>
<g>
</g>
<g>
</g>
<g>
</g>
<g>
</g>
<g>
</g>
<g>
</g>
<g>
</g>
<g>
</g>
<g>
</g>
<g>
</g>
<g>
</g>
<g>
</g>
<g>
</g>
<g>
</g>
<g>
</g>
</svg>
