<svg width="246" height="70" viewBox="0 0 246 70" fill="none" xmlns="http://www.w3.org/2000/svg">
<path d="M69.1326 69.5896C63.1375 69.5896 57.907 67.265 53.4412 62.6157V65.0015C53.4412 66.1638 53.013 67.1426 52.1565 67.9379C51.3613 68.7332 50.3825 69.1308 49.2201 69.1308C48.0578 69.1308 47.079 68.7332 46.2837 67.9379C45.4885 67.1426 45.0908 66.1638 45.0908 65.0015L45.0908 5.44764C45.0908 4.28532 45.4885 3.30651 46.2837 2.51124C47.079 1.65479 48.0578 1.22656 49.2201 1.22656C50.4436 1.22656 51.453 1.6242 52.2483 2.41947C53.0436 3.21475 53.4412 4.22414 53.4412 5.44764V27.9295C57.907 23.2802 63.1375 20.9555 69.1326 20.9555C72.9255 20.9555 76.5042 21.9343 79.8688 23.8919C83.2946 25.7883 86.0475 28.6024 88.1275 32.3341C90.2686 36.0046 91.3391 40.3174 91.3391 45.2726C91.3391 50.2278 90.2686 54.5712 88.1275 58.3029C86.0475 61.9734 83.2946 64.7874 79.8688 66.745C76.5042 68.6414 72.9255 69.5896 69.1326 69.5896ZM67.9397 61.7898C72.4666 61.7898 76.1066 60.3522 78.8594 57.477C81.6123 54.6018 82.9888 50.5336 82.9888 45.2726C82.9888 40.0115 81.6123 35.9434 78.8594 33.0682C76.1066 30.1929 72.4666 28.7553 67.9397 28.7553C65.1256 28.7553 62.4645 29.3977 59.9564 30.6823C57.5094 31.9058 55.3376 33.5576 53.4412 35.6375V54.9076C55.3376 56.9876 57.5094 58.6699 59.9564 59.9546C62.4645 61.1781 65.1256 61.7898 67.9397 61.7898Z" fill="#C13511"/>
<path d="M107.109 69.1308C105.947 69.1308 104.968 68.7332 104.173 67.9379C103.378 67.1426 102.98 66.1638 102.98 65.0015V5.44764C102.98 4.28532 103.378 3.30651 104.173 2.51124C104.968 1.65479 105.947 1.22656 107.109 1.22656C108.333 1.22656 109.342 1.6242 110.138 2.41947C110.933 3.21475 111.33 4.22414 111.33 5.44764V65.0015C111.33 66.1638 110.902 67.1426 110.046 67.9379C109.251 68.7332 108.272 69.1308 107.109 69.1308Z" fill="#C13511"/>
<path d="M129.777 12.3298C128.492 12.3298 127.391 11.871 126.473 10.9534C125.556 10.0358 125.097 8.93461 125.097 7.64994V7.28289C125.097 5.99821 125.556 4.89706 126.473 3.97944C127.391 3.06181 128.492 2.603 129.777 2.603H130.327C131.612 2.603 132.713 3.06181 133.631 3.97944C134.549 4.89706 135.007 5.99821 135.007 7.28289V7.64994C135.007 8.93461 134.549 10.0358 133.631 10.9534C132.713 11.871 131.612 12.3298 130.327 12.3298H129.777ZM129.96 69.1308C128.798 69.1308 127.819 68.7332 127.024 67.9379C126.229 67.1426 125.831 66.1638 125.831 65.0015V25.6354C125.831 24.4731 126.229 23.4943 127.024 22.699C127.819 21.8425 128.798 21.4143 129.96 21.4143C131.184 21.4143 132.193 21.812 132.989 22.6072C133.784 23.4025 134.182 24.4119 134.182 25.6354V65.0015C134.182 66.1638 133.753 67.1426 132.897 67.9379C132.102 68.7332 131.123 69.1308 129.96 69.1308Z" fill="#C13511"/>
<path d="M152.811 69.1308C151.649 69.1308 150.67 68.7332 149.875 67.9379C149.08 67.1426 148.682 66.1638 148.682 65.0015V25.6354C148.682 24.4731 149.08 23.4943 149.875 22.699C150.67 21.8425 151.649 21.4143 152.811 21.4143C153.974 21.4143 154.953 21.8425 155.748 22.699C156.604 23.4943 157.033 24.4731 157.033 25.6354V29.3977C159.357 26.8283 161.865 24.7789 164.557 23.2496C167.249 21.7202 170.43 20.9555 174.1 20.9555C177.465 20.9555 180.371 21.7508 182.818 23.3413C185.326 24.9319 187.222 27.1036 188.507 29.8565C189.853 32.6093 190.526 35.6375 190.526 38.941V65.0015C190.526 66.1638 190.098 67.1426 189.241 67.9379C188.446 68.7332 187.467 69.1308 186.305 69.1308C185.142 69.1308 184.164 68.7332 183.368 67.9379C182.573 67.1426 182.175 66.1638 182.175 65.0015V39.8586C182.175 32.3952 178.811 28.6636 172.082 28.6636C169.023 28.6636 166.27 29.4588 163.823 31.0494C161.437 32.6399 159.174 34.7811 157.033 37.4728V65.0015C157.033 66.1638 156.604 67.1426 155.748 67.9379C154.953 68.7332 153.974 69.1308 152.811 69.1308Z" fill="#C13511"/>
<path d="M225.522 69.5896C218.058 69.5896 212.216 67.4791 207.995 63.258C203.835 58.9758 201.755 52.9806 201.755 45.2726C201.755 40.9291 202.551 36.9222 204.141 33.2517C205.732 29.5812 208.179 26.6142 211.482 24.3507C214.786 22.0872 218.854 20.9555 223.687 20.9555C228.214 20.9555 232.129 22.0261 235.432 24.1672C238.736 26.2471 241.244 29.0612 242.957 32.6093C244.67 36.0963 245.526 39.9198 245.526 44.0797C245.526 45.242 245.128 46.2208 244.333 47.0161C243.599 47.8113 242.59 48.209 241.305 48.209L210.197 48.209C210.687 52.4912 212.277 55.8253 214.969 58.2111C217.661 60.5969 221.423 61.7898 226.256 61.7898C228.825 61.7898 231.058 61.5451 232.955 61.0557C234.912 60.5663 236.809 59.8628 238.644 58.9452C239.133 58.7005 239.684 58.5781 240.296 58.5781C241.274 58.5781 242.131 58.9146 242.865 59.5875C243.599 60.2605 243.966 61.1169 243.966 62.1569C243.966 63.5027 243.171 64.6345 241.58 65.5521C239.194 66.8979 236.839 67.9073 234.515 68.5803C232.19 69.2532 229.192 69.5896 225.522 69.5896ZM237.267 41.4185C237.084 38.421 236.289 35.9128 234.882 33.894C233.536 31.8752 231.853 30.407 229.835 29.4894C227.816 28.5106 225.767 28.0212 223.687 28.0212C221.607 28.0212 219.557 28.5106 217.538 29.4894C215.52 30.407 213.837 31.8752 212.492 33.894C211.146 35.9128 210.381 38.421 210.197 41.4185L237.267 41.4185Z" fill="#C13511"/>
<path d="M130.551 2.26636H129.608C127.005 2.26636 124.895 4.3766 124.895 6.97973V7.9224C124.895 10.5255 127.005 12.6358 129.608 12.6358H130.551C133.154 12.6358 135.264 10.5255 135.264 7.9224V6.97973C135.264 4.3766 133.154 2.26636 130.551 2.26636Z" fill="#303031"/>
<rect x="17.1885" y="17.4836" width="6.83855" height="52.7964" rx="3.41928" transform="rotate(19 17.1885 17.4836)" fill="#C13511"/>
<rect x="21.3447" y="5.4165" width="6.83855" height="29.4021" rx="3.41928" transform="rotate(19 21.3447 5.4165)" fill="#912D13"/>
<rect x="23.209" y="-0.000244141" width="6.83855" height="14.3938" rx="3.41928" transform="rotate(19 23.209 -0.000244141)" fill="#303031"/>
</svg>
