<svg width="200" height="182" viewBox="0 0 200 182" fill="none" xmlns="http://www.w3.org/2000/svg">
<path d="M35.9819 92.1368L41.1604 22.3229L99.0318 61.7145L35.9819 92.1368Z" fill="#FE0000" stroke="white" stroke-width="3"/>
<path d="M101.665 61.9608L159.538 22.5713L164.714 92.3854L101.665 61.9608Z" fill="#FE0000" stroke="white" stroke-width="3"/>
<path d="M168.5 113.775C168.5 150.472 138.086 180.275 100.5 180.275C62.9136 180.275 32.5 150.472 32.5 113.775C32.5 77.0792 62.9136 47.2754 100.5 47.2754C138.086 47.2754 168.5 77.0792 168.5 113.775Z" fill="#FE0000" stroke="#F8F7F7" stroke-width="3"/>
<path d="M96.5899 93.187C97.3946 92.9504 98.3176 92.761 99.3589 92.619C100.448 92.4297 101.394 92.335 102.199 92.335C103.193 92.335 104.14 92.4297 105.039 92.619C105.986 92.8084 106.814 93.1397 107.524 93.613C108.234 94.039 108.802 94.6544 109.228 95.459C109.654 96.2164 109.867 97.1867 109.867 98.37V118.392H115.689C115.973 118.818 116.233 119.433 116.47 120.238C116.754 120.995 116.896 121.8 116.896 122.652C116.896 124.261 116.517 125.421 115.76 126.131C115.05 126.794 114.127 127.125 112.991 127.125H109.867V136C109.394 136.095 108.684 136.213 107.737 136.355C106.838 136.497 105.938 136.568 105.039 136.568C103.193 136.568 101.749 136.308 100.708 135.787C99.7139 135.266 99.2169 134.012 99.2169 132.024V127.125H81.6799C80.7332 126.604 79.9049 125.847 79.1949 124.853C78.4849 123.859 78.1299 122.628 78.1299 121.161C78.1299 120.356 78.2246 119.481 78.4139 118.534C78.6032 117.587 78.9582 116.759 79.4789 116.049L96.5899 93.187ZM99.7849 103.34H99.5719L89.4899 118.392H99.7849V103.34Z" fill="#FFFEFE"/>
</svg>
