<svg width="200" height="182" viewBox="0 0 200 182" fill="none" xmlns="http://www.w3.org/2000/svg">
<path d="M35.9819 92.1368L41.1604 22.3229L99.0318 61.7145L35.9819 92.1368Z" fill="white" stroke="#FE0000" stroke-width="3"/>
<path d="M101.665 61.9608L159.538 22.5713L164.714 92.3854L101.665 61.9608Z" fill="white" stroke="#FE0000" stroke-width="3"/>
<path d="M168.5 113.775C168.5 150.472 138.086 180.275 100.5 180.275C62.9136 180.275 32.5 150.472 32.5 113.775C32.5 77.0792 62.9136 47.2754 100.5 47.2754C138.086 47.2754 168.5 77.0792 168.5 113.775Z" fill="white" stroke="#FE0000" stroke-width="3"/>
<path d="M108.039 117.416C108.039 112.825 107.329 109.369 105.909 107.05C104.536 104.683 102.667 103.5 100.3 103.5C97.9333 103.5 96.0637 104.683 94.691 107.05C93.3657 109.369 92.703 112.825 92.703 117.416C92.703 122.149 93.342 125.676 94.62 127.995C95.9453 130.267 97.8387 131.403 100.3 131.403C102.761 131.403 104.655 130.267 105.98 127.995C107.353 125.676 108.039 122.149 108.039 117.416ZM100.371 140.065C97.6257 140.065 95.0933 139.592 92.774 138.645C90.502 137.698 88.5377 136.278 86.881 134.385C85.2717 132.492 84.0173 130.149 83.118 127.356C82.2187 124.516 81.769 121.203 81.769 117.416C81.769 113.677 82.2187 110.411 83.118 107.618C84.0647 104.778 85.3663 102.411 87.023 100.518C88.6797 98.6247 90.644 97.2047 92.916 96.258C95.188 95.3113 97.673 94.838 100.371 94.838C103.022 94.838 105.483 95.3113 107.755 96.258C110.027 97.2047 111.991 98.6247 113.648 100.518C115.305 102.411 116.606 104.778 117.553 107.618C118.5 110.411 118.973 113.677 118.973 117.416C118.973 121.203 118.5 124.516 117.553 127.356C116.654 130.149 115.376 132.492 113.719 134.385C112.11 136.278 110.145 137.698 107.826 138.645C105.554 139.592 103.069 140.065 100.371 140.065Z" fill="#FE0000"/>
</svg>
