<svg width="108" height="127" viewBox="0 0 108 127" fill="none" xmlns="http://www.w3.org/2000/svg">
<g id="Deamon Face">
<g id="Static parts">
<path id="Polygon 13" d="M1.70347 66.715L5.03268 3.88565L61.1372 32.3617L1.70347 66.715Z" fill="#2B478B" stroke="white" stroke-width="3"/>
<path id="Polygon 14" d="M46.1956 32.8227L101.764 3.31332L106.255 66.0703L46.1956 32.8227Z" fill="#2B478B" stroke="white" stroke-width="3"/>
<circle id="Ellipse 11" cx="54" cy="73" r="52.5" fill="#2B478B" stroke="white" stroke-width="3"/>
<circle id="Ellipse 12" cx="31.0449" cy="64.4442" r="8.5" fill="white"/>
<circle id="Ellipse 13" cx="76.0449" cy="64.4442" r="8.5" fill="white"/>
<path id="Vector 3" d="M75.5449 95.9442C59.9348 108.622 40.3741 101.227 32.5449 95.9442C38.8082 97.1805 46.276 99.3159 54.9483 99.3159C63.6206 99.3159 68.029 98.3719 75.5449 95.9442Z" fill="white"/>
</g>
<g id="EyeBros">
<path id="Vector 1" d="M57.3977 59.2304L66.5068 63.8475C67.4966 56.7048 79.0415 51.4909 91.3313 47.3943C83.6315 47.9582 65.6398 53.956 57.3977 59.2304Z" fill="white"/>
<path id="Vector 2" d="M50.3074 59.2304L41.1982 63.8475C40.2085 56.7048 28.6636 51.4909 16.3738 47.3943C24.0736 47.9582 42.0653 53.956 50.3074 59.2304Z" fill="white"/>
</g>
</g>
</svg>
